<svg width="213" height="211" viewBox="0 0 213 211" fill="none" xmlns="http://www.w3.org/2000/svg">
<path d="M163.838 72.3958L49.1619 138.604M163.838 72.3958L174.224 33.6349M163.838 72.3958L202.599 82.7818M49.1619 138.604L10.4009 128.218M49.1619 138.604L38.7759 177.365M163.837 138.603L49.1611 72.3945M163.837 138.603L202.599 128.217M163.837 138.603L174.224 177.364M49.1611 72.3945L38.7772 33.6359M49.1611 72.3945L10.4022 82.7828M106.5 39.2917L106.5 171.708M106.5 39.2917L78.125 10.9167M106.5 39.2917L134.875 10.9167M106.5 171.708L78.125 200.083M106.5 171.708L134.875 200.083" stroke="white" stroke-width="20" stroke-linecap="round" stroke-linejoin="round"/>
</svg>
