<svg width="71" height="67" viewBox="0 0 71 67" fill="none" xmlns="http://www.w3.org/2000/svg">
<path d="M52.0645 55.1029H56.3688C57.1897 55.1029 57.9479 54.6636 58.3561 53.9513C58.7495 53.2649 58.7633 52.4287 58.3884 51.7319L37.769 13.409C37.2972 12.5322 36.3898 12 35.3942 12C34.3986 12 33.4836 12.5472 33.0125 13.4242L21.951 34.0173L28.2349 38.4174L33.6827 28.9816C34.4941 27.5762 36.5226 27.5762 37.334 28.9816L44.115 40.7265C44.9264 42.1319 43.9121 43.8886 42.2893 43.8886H36.0487L52.0645 55.1029Z" fill="white"/>
<path d="M42.9103 55.1045L19.4489 38.6767L12.4466 51.7127C12.0662 52.4209 12.0723 53.2741 12.4627 53.9768C12.8494 54.6729 13.5831 55.1045 14.3793 55.1045H42.9103Z" fill="url(#paint0_linear_30_22)"/>
<g opacity="0.37" filter="url(#filter0_f_30_22)">
<path d="M52.0644 55.1035H56.3687C57.1896 55.1035 57.9478 54.6642 58.356 53.952C58.7494 53.2655 58.7632 52.4293 58.3883 51.7325L37.7688 13.4091C37.2971 12.5322 36.3897 12 35.3941 12C34.3985 12 33.4835 12.5472 33.0124 13.4242L21.9509 34.0176L28.2348 38.4178L33.6826 28.9818C34.494 27.5764 36.5225 27.5764 37.3339 28.9818L44.1149 40.7269C44.9263 42.1323 43.912 43.8891 42.2892 43.8891H36.0486L52.0644 55.1035Z" fill="#3DAFFE"/>
<path d="M42.9103 55.1051L19.4489 38.6771L12.4466 51.7132C12.0662 52.4215 12.0723 53.2746 12.4627 53.9774C12.8494 54.6734 13.5831 55.1051 14.3793 55.1051H42.9103Z" fill="#3DAFFE"/>
</g>
<defs>
<filter id="filter0_f_30_22" x="0.765535" y="0.6" width="69.295" height="65.9051" filterUnits="userSpaceOnUse" color-interpolation-filters="sRGB">
<feFlood flood-opacity="0" result="BackgroundImageFix"/>
<feBlend mode="normal" in="SourceGraphic" in2="BackgroundImageFix" result="shape"/>
<feGaussianBlur stdDeviation="5.7" result="effect1_foregroundBlur_30_22"/>
</filter>
<linearGradient id="paint0_linear_30_22" x1="27.5379" y1="38.6767" x2="12.1656" y2="57.3276" gradientUnits="userSpaceOnUse">
<stop stop-color="#3DAFFE"/>
<stop offset="1" stop-color="#0097FF"/>
</linearGradient>
</defs>
</svg>
