<svg width="273" height="83" viewBox="0 0 273 83" fill="none" xmlns="http://www.w3.org/2000/svg">
<g opacity="0.37" filter="url(#filter0_f_30_18)">
<path d="M52.4282 20.1654C55.0728 20.1654 56.786 22.957 55.5884 25.3149L45.9498 44.2918C42.9163 50.2641 41.3996 53.2503 39.4159 54.1392C37.6914 54.912 35.7074 54.8489 34.0354 53.9682C32.1122 52.9552 30.7881 49.8787 28.14 43.7257L20.1395 25.1365C19.1275 22.785 20.852 20.1654 23.412 20.1654C24.8551 20.1654 26.1557 21.0359 26.7058 22.37L34.407 41.0475C35.39 43.5586 38.9204 43.6796 40.0342 41.2237L49.2365 22.1684C49.8279 20.9437 51.0681 20.1654 52.4282 20.1654Z" fill="#3DAFFE"/>
<path d="M123.424 57.3486C119.98 57.3486 118.258 57.3486 116.942 56.6784C115.785 56.0888 114.845 55.1481 114.255 53.991C113.585 52.6756 113.585 50.9536 113.585 47.5097V23.6908C113.585 21.7438 112.006 20.1654 110.059 20.1654C108.112 20.1654 106.534 21.7438 106.534 23.6908V53.2654C106.534 56.7093 106.534 58.4313 107.204 59.7467C107.794 60.9038 108.734 61.8445 109.891 62.4341C111.207 63.1043 112.929 63.1043 116.373 63.1043H132.606C134.195 63.1043 135.483 61.8159 135.483 60.2265C135.483 58.6371 134.195 57.3486 132.606 57.3486H123.424Z" fill="#3DAFFE"/>
<path d="M174.092 20.2241C176.787 20.2241 178.387 23.2374 176.876 25.4695L166.053 41.4587L165.966 41.5735C165.195 42.5975 164.809 43.1095 164.54 43.6751C164.302 44.1768 164.133 44.7085 164.038 45.2557C163.93 45.8724 163.95 46.5133 163.989 47.795L164.019 48.8001V59.206C164.019 61.359 162.274 63.1043 160.121 63.1043C157.968 63.1043 156.222 61.359 156.222 59.206V47.3871C156.222 46.2537 156.222 45.687 156.123 45.1398C156.034 44.6542 155.887 44.1811 155.686 43.7305C155.458 43.2229 155.138 42.7556 154.497 41.821L143.214 25.3757C141.716 23.1924 143.28 20.2241 145.927 20.2241C147.023 20.2241 148.047 20.7695 148.658 21.6787L157.375 34.6458L157.402 34.6854C158.672 36.5191 161.38 36.5289 162.663 34.7045L171.293 21.7244C171.916 20.7873 172.967 20.2241 174.092 20.2241Z" fill="#3DAFFE"/>
<path d="M200.907 38.6983C195.89 38.4634 191.755 35.4681 191.958 32.0616C192.094 28.5965 196.772 26.3059 201.653 26.5996C203.896 26.7139 205.939 27.2236 207.505 28.1126C208.928 28.9206 210.637 29.5088 212.177 28.9532C214.528 28.1045 215.326 25.23 213.285 23.7866C210.363 21.7207 206.482 20.2302 202.06 20.0348C192.433 19.5062 185.043 25.0726 184.568 31.768C184.236 38.0413 190.349 43.8069 199.462 44.6437C199.832 44.6776 200.198 44.8064 200.568 44.8064C205.653 45.0413 209.585 47.8017 209.246 51.2081C209.111 54.732 204.84 56.5526 199.823 56.3177C197.122 56.2098 195.058 55.5725 193.568 54.4195C191.932 53.1533 189.954 51.9617 187.94 52.4337C185.405 53.0277 184.033 55.7799 185.908 57.5866C188.932 60.5005 193.768 62.5467 199.416 62.8369C209.111 63.248 217.314 58.2559 217.653 51.6192C218.128 45.0413 210.602 39.1681 200.907 38.6983Z" fill="#3DAFFE"/>
<path d="M250.24 25.6861C251.764 25.6861 253 24.4503 253 22.9258C253 21.4012 251.764 20.1654 250.24 20.1654H234.161C230.717 20.1654 228.995 20.1654 227.679 20.8356C226.522 21.4252 225.582 22.3659 224.992 23.523C224.322 24.8384 224.322 26.5604 224.322 30.0043V53.2654C224.322 56.7093 224.322 58.4313 224.992 59.7467C225.582 60.9038 226.522 61.8445 227.679 62.4341C228.995 63.1043 230.717 63.1043 234.161 63.1043H250.24C251.764 63.1043 253 61.8685 253 60.3439C253 58.8194 251.764 57.5836 250.24 57.5836H237.94C237.489 57.5836 237.264 57.5836 237.073 57.5718C233.977 57.3796 231.509 54.9114 231.317 51.8151C231.305 51.6249 231.305 51.3995 231.305 50.9489C231.305 50.4983 231.305 50.2729 231.317 50.0827C231.509 46.9865 233.977 44.5182 237.073 44.3261C237.264 44.3142 237.489 44.3142 237.94 44.3142H247.121C248.646 44.3142 249.881 43.0784 249.881 41.5539C249.881 40.0294 248.646 38.7935 247.121 38.7935H237.859C237.483 38.7935 237.295 38.7935 237.137 38.7853C233.99 38.6227 231.476 36.1081 231.313 32.9616C231.305 32.803 231.305 32.6152 231.305 32.2398C231.305 31.8644 231.305 31.6767 231.313 31.5181C231.476 28.3715 233.99 25.857 237.137 25.6943C237.295 25.6861 237.483 25.6861 237.859 25.6861H250.24Z" fill="#3DAFFE"/>
</g>
<path d="M58.2039 20.1654L36.4409 63.0131L18 20.1654H25.7967L34.407 41.0475L37.0511 47.8017L40.0342 41.2237L50.2038 20.1654H58.2039Z" fill="white"/>
<path d="M113.585 57.3486V20.1654H106.534V63.1043H135.483V57.3486H113.585Z" fill="white"/>
<path d="M180.426 20.2241L166.053 41.4587L163.884 44.3365L164.019 48.8001V63.1043H156.222V44.3365L139.68 20.2241H147.68L157.375 34.6458L160.019 38.4634L162.663 34.7045L172.29 20.2241H180.426Z" fill="white"/>
<path d="M200.907 38.6983C195.89 38.4634 191.755 35.4681 191.958 32.0616C192.094 28.5965 196.772 26.3059 201.653 26.5996C205.111 26.7758 208.094 27.8917 209.585 29.8886L216.907 27.2456C214.128 23.5456 208.704 20.3285 202.06 20.0348C192.433 19.5062 185.043 25.0726 184.568 31.768C184.229 38.1697 190.602 44.0428 200.026 44.6889C200.229 44.8064 200.365 44.8064 200.568 44.8064C205.653 45.0413 209.585 47.8017 209.246 51.2081C209.111 54.732 204.84 56.5526 199.823 56.3177C195.416 56.1415 192.704 54.5558 191.416 51.6192L183.144 53.5573C185.043 58.4908 191.416 62.4258 199.416 62.8369C209.111 63.248 217.314 58.2559 217.653 51.6192C218.128 45.0413 210.602 39.1681 200.907 38.6983Z" fill="white"/>
<path d="M253 25.6861V20.1654H224.322V63.1043H253V57.5836H231.305V44.3142H249.881V38.7935H231.305V25.6861H253Z" fill="white"/>
<path d="M92.0645 63.1029H96.3688C97.1897 63.1029 97.9479 62.6636 98.3561 61.9513C98.7495 61.2649 98.7633 60.4287 98.3884 59.7319L77.769 21.409C77.2972 20.5322 76.3898 20 75.3942 20C74.3986 20 73.4836 20.5472 73.0125 21.4242L61.951 42.0173L68.2349 46.4174L73.6827 36.9816C74.4941 35.5762 76.5226 35.5762 77.334 36.9816L84.115 48.7265C84.9264 50.1319 83.9121 51.8886 82.2893 51.8886H76.0487L92.0645 63.1029Z" fill="white"/>
<path d="M82.9103 63.1045L59.4489 46.6767L52.4466 59.7127C52.0662 60.4209 52.0723 61.2741 52.4627 61.9768C52.8494 62.6729 53.5831 63.1045 54.3793 63.1045H82.9103Z" fill="url(#paint0_linear_30_18)"/>
<g opacity="0.37" filter="url(#filter1_f_30_18)">
<path d="M92.0644 63.1035H96.3687C97.1896 63.1035 97.9478 62.6642 98.356 61.952C98.7494 61.2655 98.7632 60.4293 98.3883 59.7325L77.7688 21.4091C77.2971 20.5322 76.3897 20 75.3941 20C74.3985 20 73.4835 20.5472 73.0124 21.4242L61.9509 42.0176L68.2348 46.4178L73.6826 36.9818C74.494 35.5764 76.5225 35.5764 77.3339 36.9818L84.1149 48.7269C84.9263 50.1323 83.912 51.8891 82.2892 51.8891H76.0486L92.0644 63.1035Z" fill="#3DAFFE"/>
<path d="M82.9103 63.1051L59.4489 46.6771L52.4466 59.7132C52.0662 60.4215 52.0723 61.2746 52.4627 61.9774C52.8494 62.6734 53.5831 63.1051 54.3793 63.1051H82.9103Z" fill="#3DAFFE"/>
</g>
<defs>
<filter id="filter0_f_30_18" x="0.245451" y="0.4" width="272.355" height="82.3043" filterUnits="userSpaceOnUse" color-interpolation-filters="sRGB">
<feFlood flood-opacity="0" result="BackgroundImageFix"/>
<feBlend mode="normal" in="SourceGraphic" in2="BackgroundImageFix" result="shape"/>
<feGaussianBlur stdDeviation="9.8" result="effect1_foregroundBlur_30_18"/>
</filter>
<filter id="filter1_f_30_18" x="40.7655" y="8.6" width="69.295" height="65.9051" filterUnits="userSpaceOnUse" color-interpolation-filters="sRGB">
<feFlood flood-opacity="0" result="BackgroundImageFix"/>
<feBlend mode="normal" in="SourceGraphic" in2="BackgroundImageFix" result="shape"/>
<feGaussianBlur stdDeviation="5.7" result="effect1_foregroundBlur_30_18"/>
</filter>
<linearGradient id="paint0_linear_30_18" x1="67.5379" y1="46.6767" x2="52.1656" y2="65.3276" gradientUnits="userSpaceOnUse">
<stop stop-color="#3DAFFE"/>
<stop offset="1" stop-color="#0097FF"/>
</linearGradient>
</defs>
</svg>
